<?xml version="1.0" encoding="UTF-8"?>
<svg width="512px" height="512px" viewBox="0 0 512 512" version="1.1" xmlns="http://www.w3.org/2000/svg" xmlns:xlink="http://www.w3.org/1999/xlink">
    <title>logo512</title>
    <defs>
        <path d="M140,0 L372,0 C449.319865,0 512,62.680135 512,140 L512,372 C512,449.319865 449.319865,512 372,512 L140,512 C62.680135,512 0,449.319865 0,372 L0,140 C0,62.680135 62.680135,0 140,0 Z" id="path-1"></path>
    </defs>
    <g id="logo512" stroke="none" fill="none" xlink:href="#path-1" fill-rule="evenodd">
        <use fill="#FCFCFC" xlink:href="#path-1"></use>
        <g id="Group" stroke-width="1" transform="translate(134.5, 134.5)" stroke="#000000" stroke-linecap="round" stroke-linejoin="round">
            <path d="M121.936333,124.2395 C120.990731,121.867228 121.548156,119.159759 123.353957,117.353957 C125.159759,115.548156 127.867228,114.990731 130.2395,115.936333 L245.7395,160.853 C248.277355,161.844662 249.912188,164.330961 249.816896,167.054014 C249.721603,169.777067 247.916967,172.143003 245.316,172.954833 L201.118,186.660833 C197.069395,187.912562 193.899729,191.082229 192.648,195.130833 L178.954833,239.316 C178.143003,241.916967 175.777067,243.721603 173.054014,243.816896 C170.330961,243.912188 167.844662,242.277355 166.853,239.7395 L121.936333,124.2395 Z" id="Path" stroke-width="25.6666667"></path>
            <path d="M25.6666667,179.666667 C25.6666667,94.6148152 94.6148152,25.6666667 179.666667,25.6666667 M205.333333,51.3333333 C219.508642,51.3333333 231,39.8419752 231,25.6666667 C231,11.4913581 219.508642,-1.0658141e-14 205.333333,-1.0658141e-14 C191.158025,-1.0658141e-14 179.666667,11.4913581 179.666667,25.6666667 C179.666667,39.8419752 191.158025,51.3333333 205.333333,51.3333333 Z M25.6666667,231 C39.8419752,231 51.3333333,219.508642 51.3333333,205.333333 C51.3333333,191.158025 39.8419752,179.666667 25.6666667,179.666667 C11.4913581,179.666667 1.77635684e-14,191.158025 1.77635684e-14,205.333333 C1.77635684e-14,219.508642 11.4913581,231 25.6666667,231 Z" id="Combined-Shape" stroke-width="25.6666667"></path>
        </g>
    </g>
</svg>